<svg width="184" height="22" viewBox="0 0 184 22" fill="none" xmlns="http://www.w3.org/2000/svg">
<path fill-rule="evenodd" clip-rule="evenodd" d="M50.4001 11.5C50.4001 9.10005 49.3001 8.10005 46.6001 8.10005C44.0001 8.10005 42.7001 9.20005 42.7001 11.5C42.7001 13.8 44.0001 14.9 46.6001 14.9C49.3001 14.9 50.4001 13.8 50.4001 11.5ZM53.4001 11.5C53.4001 15.3 51.3001 17.6 47.4001 17.6C45.4001 17.6 43.6001 16.5 42.7001 14.5V21.5H39.6001V5.60005H42.7001V8.50005C43.6001 6.50005 45.4001 5.30005 47.5001 5.30005C51.4001 5.30005 53.4001 7.70005 53.4001 11.5Z" fill="#17191E"/>
<path fill-rule="evenodd" clip-rule="evenodd" d="M66.4001 11.5C66.4001 9.20002 65.1001 8.10002 62.5001 8.10002C59.8001 8.10002 58.7001 9.10002 58.7001 11.5C58.7001 13.8 59.8001 14.9 62.5001 14.9C65.1001 14.9 66.4001 13.8 66.4001 11.5ZM66.3001 5.60002H69.4001V17.4H66.3001V14.5C65.4001 16.5 63.7001 17.7 61.6001 17.7C57.7001 17.7 55.6001 15.3 55.6001 11.6C55.6001 7.80002 57.6001 5.40002 61.4001 5.40002C63.5001 5.40002 65.4001 6.60002 66.2001 8.60002V5.60002H66.3001Z" fill="#17191E"/>
<path fill-rule="evenodd" clip-rule="evenodd" d="M81.3999 8.3H77.3999V14.7H81.0999V17.4H77.9999C75.7999 17.4 74.2999 15.9 74.2999 13.7V8.3H71.3999V5.6H74.2999V2H77.3999V5.5H81.3999V8.3Z" fill="#17191E"/>
<path fill-rule="evenodd" clip-rule="evenodd" d="M93.6999 12.2L96.6999 12.9C95.9999 16 93.6999 17.6 89.9999 17.6C87.7999 17.6 86.0999 17 84.7999 15.9C83.4999 14.8 82.8999 13.3 82.8999 11.5C82.8999 9.60005 83.4999 8.10005 84.7999 7.00005C86.0999 5.90005 87.7999 5.30005 89.9999 5.30005C93.6999 5.30005 95.9999 6.90005 96.6999 10L93.6999 10.7C93.2999 8.80005 92.2999 8.10005 89.8999 8.10005C86.9999 8.10005 85.8999 9.20005 85.8999 11.5C85.8999 13.8 86.9999 14.9 89.8999 14.9C92.2999 14.9 93.2999 14.2 93.6999 12.2Z" fill="#17191E"/>
<path fill-rule="evenodd" clip-rule="evenodd" d="M111.8 10.6V17.4H108.7V11.2C108.7 9 107.8 8.1 105.9 8.1C103.6 8.1 102.4 9.3 102.4 11.7V17.3H99.3V0.5H102.4V8.3C103.1 6.3 104.6 5.3 107 5.3C110.2 5.3 111.8 7.1 111.8 10.6Z" fill="#17191E"/>
<path fill-rule="evenodd" clip-rule="evenodd" d="M114.1 14.1L117.1 13.3C117.4 14.8 118.3 15.3 120.2 15.3C121.8 15.3 122.7 14.9 122.7 14.1C122.7 13.3 122.2 13 120.6 12.8L118.2 12.5C115.9 12.2 114.5 10.9 114.5 9.00002C114.5 6.80002 116.5 5.40002 119.8 5.40002C123.1 5.40002 125 6.70002 125.5 8.90002L122.5 9.60003C122.3 8.10002 121.5 7.70002 119.9 7.70002C118.4 7.70002 117.6 8.10002 117.6 8.90002C117.6 9.60002 118.1 10 119.3 10.1L122.2 10.5C124.4 10.8 125.8 12 125.8 13.9C125.8 16.3 123.7 17.8 120.1 17.8C116.7 17.6 114.5 16.2 114.1 14.1Z" fill="#17191E"/>
<path fill-rule="evenodd" clip-rule="evenodd" d="M136.7 8.3H132.7V14.7H136.4V17.4H133.3C131.1 17.4 129.6 15.9 129.6 13.7V8.3H126.7V5.6H129.6V2H132.7V5.5H136.7V8.3Z" fill="#17191E"/>
<path fill-rule="evenodd" clip-rule="evenodd" d="M149.2 11.5C149.2 9.20002 147.9 8.10002 145.3 8.10002C142.6 8.10002 141.5 9.10002 141.5 11.5C141.5 13.8 142.6 14.9 145.3 14.9C147.9 14.9 149.2 13.8 149.2 11.5ZM149.1 5.60002H152.2V17.4H149.1V14.5C148.2 16.5 146.5 17.7 144.4 17.7C140.5 17.7 138.4 15.3 138.4 11.6C138.4 7.80002 140.4 5.40002 144.2 5.40002C146.3 5.40002 148.2 6.60002 149 8.60002V5.60002H149.1Z" fill="#17191E"/>
<path fill-rule="evenodd" clip-rule="evenodd" d="M165.6 12.2L168.6 12.9C167.9 16 165.6 17.6 161.9 17.6C159.7 17.6 158 17 156.7 15.9C155.4 14.8 154.8 13.3 154.8 11.5C154.8 9.60005 155.4 8.10005 156.7 7.00005C158 5.90005 159.7 5.30005 161.9 5.30005C165.6 5.30005 167.9 6.90005 168.6 10L165.6 10.7C165.2 8.80005 164.2 8.10005 161.8 8.10005C158.9 8.10005 157.8 9.20005 157.8 11.5C157.8 13.8 158.9 14.9 161.8 14.9C164.1 14.9 165.1 14.2 165.6 12.2Z" fill="#17191E"/>
<path fill-rule="evenodd" clip-rule="evenodd" d="M180.257 17.4001L176.657 12.3001L174.157 14.6001V17.4001H171.157V0.500122H174.157V11.1001L179.857 5.60012H183.757L178.557 10.5001L183.957 17.4001H180.257Z" fill="#17191E"/>
<path fill-rule="evenodd" clip-rule="evenodd" d="M0 21.5H7.3V16.3H0V21.5Z" fill="#AFE614"/>
<path fill-rule="evenodd" clip-rule="evenodd" d="M7.30004 21.5H14.6V16.3H7.30004V21.5Z" fill="#6EBE00"/>
<path fill-rule="evenodd" clip-rule="evenodd" d="M14.6001 16.3H29.2001V0.5H14.6001V16.3Z" fill="#AFE614"/>
<path fill-rule="evenodd" clip-rule="evenodd" d="M0 11H14.6V0.5H0V11Z" fill="#6EBE00"/>
</svg>
