<svg width="32" height="32" viewBox="0 0 32 32" fill="none" xmlns="http://www.w3.org/2000/svg">
<path d="M30.7001 11.6001C27.4001 0.600059 22.6001 -1.99994 11.6001 1.30006C0.600059 4.60006 -1.99994 9.40006 1.30006 20.4001C4.60006 31.4001 9.40006 34.0001 20.4001 30.7001C31.4001 27.4001 34.0001 22.6001 30.7001 11.6001ZM25.1001 18.7001L23.0001 19.4001L23.7001 21.5001C24.0001 22.4001 23.5001 23.3001 22.7001 23.6001C22.5001 23.7001 22.3001 23.7001 22.1001 23.7001C21.4001 23.7001 20.8001 23.2001 20.6001 22.6001L19.9001 20.5001L15.6001 21.9001L16.3001 24.0001C16.6001 24.9001 16.1001 25.8001 15.3001 26.1001C15.1001 26.2001 14.9001 26.2001 14.7001 26.2001C14.0001 26.2001 13.4001 25.7001 13.2001 25.1001L12.5001 23.0001L10.4001 23.7001C10.2001 23.8001 10.0001 23.8001 9.80006 23.8001C9.10006 23.8001 8.50006 23.3001 8.30006 22.7001C8.00006 21.8001 8.50006 20.9001 9.30006 20.6001L11.4001 19.9001L10.0001 15.7001L8.00006 16.4001C7.80006 16.5001 7.60006 16.5001 7.40006 16.5001C6.70006 16.5001 6.10006 16.0001 5.90006 15.4001C5.60006 14.5001 6.10006 13.6001 6.90006 13.3001L9.00006 12.6001L8.30006 10.5001C8.00006 9.60006 8.40006 8.60006 9.30006 8.30006C10.2001 8.00006 11.1001 8.50006 11.4001 9.30006L12.1001 11.4001L16.4001 10.0001L15.7001 7.90006C15.4001 7.00006 15.9001 6.10006 16.7001 5.80006C17.6001 5.50006 18.5001 6.00006 18.8001 6.80006L19.5001 9.00006L21.6001 8.30006C22.5001 8.00006 23.4001 8.50006 23.7001 9.30006C24.0001 10.2001 23.5001 11.1001 22.7001 11.4001L20.6001 12.1001L22.0001 16.2001L24.1001 15.5001C25.0001 15.2001 25.9001 15.7001 26.2001 16.5001C26.4001 17.5001 26.0001 18.4001 25.1001 18.7001Z" fill="#0066CC"/>
</svg>
